# AST/ASF file generated using VICON BodyLanguage
# -----------------------------------------------
:version 1.10
:name VICON
:units
  mass 1.0
  length 0.45
  angle deg
:documentation
   .ast/.asf automatically generated from VICON data using
   VICON BodyBuilder and BodyLanguage model FoxedUp or BRILLIANT.MOD
:root
   order TX TY TZ RX RY RZ
   axis XYZ
   position 0 0 0  
   orientation 0 0 0 
:bonedata
  begin
     id 1 
     name lhipjoint
     direction 0.700308 -0.549349 0.455834 
     length 2.59063 
     axis 0 0 0  XYZ
  end
  begin
     id 2 
     name lfemur
     direction 0.34202 -0.939693 0  
     length 6.31066  
     axis 0 0 20  XYZ
    dof rx ry rz
    limits (-160.0 20.0)
           (-70.0 70.0)
           (-60.0 70.0)
  end
  begin
     id 3 
     name ltibia
     direction 0.34202 -0.939693 0   
     length 7.36093   
     axis 0 0 20   XYZ
    dof rx
    limits (-10.0 170.0)
  end
  begin
     id 4 
     name lfoot
     direction 0.0905332 -0.248738 0.96433   
     length 2.0233   
     axis -90 7.62852e-016 20   XYZ
    dof rx rz
    limits (-45.0 90.0)
           (-70.0 20.0)
  end
  begin
     id 5 
     name ltoes
     direction 1.53573e-011 -4.21855e-011 1   
     length 1.01524   
     axis -90 7.62852e-016 20   XYZ
    dof rx
    limits (-90.0 20.0)
  end
  begin
     id 6 
     name rhipjoint
     direction -0.61416 -0.607328 0.503944   
     length 2.34332  
     axis 0 0 0  XYZ 
  end
  begin
     id 7 
     name rfemur
     direction -0.34202 -0.939693 0   
     length 6.58548   
     axis 0 0 -20   XYZ
    dof rx ry rz
    limits (-160.0 20.0)
           (-70.0 70.0)
           (-70.0 60.0)
  end
  begin
     id 8 
     name rtibia
     direction -0.34202 -0.939693 0   
     length 7.20707   
     axis 0 0 -20   XYZ
    dof rx
    limits (-10.0 170.0)
 end
 begin
     id 9 
     name rfoot
     direction -0.136772 -0.375778 0.916561   
     length 1.92184  
     axis -90 -7.62852e-016 -20   XYZ
    dof rx rz
    limits (-45.0 90.0)
           (-20.0 70.0)
  end
  begin
     id 10 
     name rtoes
     direction -1.53535e-011 -4.21828e-011 1   
     length 0.951089   
     axis -90 -7.62852e-016 -20   XYZ
    dof rx
    limits (-90.0 20.0)
  end
  begin
     id 11 
     name lowerback
     direction -0.0444974 0.988086 -0.147332   
     length 1.9609   
     axis 0 0 0   XYZ
    dof rx ry rz
    limits (-20.0 45.0)
           (-30.0 30.0)
           (-30.0 30.0)
  end
  begin
     id 12 
     name upperback
     direction 0.00613146 0.999513 0.0306081   
     length 1.94944   
     axis 0 0 0   XYZ
    dof rx ry rz
    limits (-20.0 45.0)
           (-30.0 30.0)
           (-30.0 30.0)
  end
  begin
     id 13 
     name thorax
     direction 0.0254621 0.994518 0.101418   
     length 2.0119   
     axis 0 0 0   XYZ
    dof rx ry rz
    limits (-20.0 45.0)
           (-30.0 30.0)
           (-30.0 30.0)
  end
  begin
     id 14 
     name lowerneck
     direction 0.0168698 0.977854 0.208608   
     length 1.6375   
     axis 0 0 0   XYZ
    dof rx ry rz
    limits (-20.0 45.0)
           (-30.0 30.0)
           (-30.0 30.0)
  end
  begin
     id 15 
     name upperneck
     direction -0.0283988 0.989338 -0.142843   
     length 1.6851   
     axis 0 0 0   XYZ
    dof rx ry rz
    limits (-20.0 45.0)
           (-30.0 30.0)
           (-30.0 30.0)
  end
  begin
     id 16
     name head
     direction -0.0129422 0.99741 -0.0707489  
     length 1.69029  
     axis 0 0 0   XYZ
    dof rx ry rz
    limits (-20.0 45.0)
           (-30.0 30.0)
           (-30.0 30.0)
  end
  begin
     id 17 
     name lclavicle
     direction 0.820295 0.564628 -0.0911715  
     length 3.16484  
     axis 0 0 0   XYZ
    dof ry rz
    limits (-20.0 10.0)
           (0.0 20.0)
  end
  begin
     id 18 
     name lhumerus
     direction 1 -4.48969e-011 1.00186e-027   
     length 5.17853   
     axis 180 -30 -90   XYZ
    dof rx ry rz
    limits (-60.0 90.0)
           (-90.0 90.0)
           (-90.0 90.0)
  end
  begin
     id 19
     name lradius
     direction 1 -4.48966e-011 -1.52922e-027   
     length 3.40399   
     axis 180 -30 -90   XYZ
    dof rx
    limits (-10.0 170.0)
  end
  begin
     id 20
     name lwrist
     direction 1 -4.48981e-011 -3.80893e-027   
     length 1.70199   
     axis 1.1049e-015 90 90   XYZ
    dof ry
    limits (-180.0 0.0)
 end
  begin
     id 21 
     name lhand
     direction 1 -4.48957e-011 -7.61786e-027   
     length 0.708964   
     axis 4.86085e-015 90 90   XYZ
    dof rx rz
    limits (-90.0 90.0)
           (-45.0 45.0)
  end
  begin
     id 22 
     name lfingers
     direction 1 -4.48929e-011 -1.52357e-026   
     length 0.571585   
     axis 9.7217e-015 90 90   XYZ
    dof rx
    limits (0.0 90.0)
  end
  begin
     id 23
     name lthumb
     direction 0.707107 -6.34905e-011 0.707107   
     length 0.820685   
     axis -90 45 2.85299e-015   XYZ
    dof rx rz
    limits (-45.0 45.0)
           (-45.0 45.0)
  end
  begin
     id 24 
     name rclavicle
     direction -0.858602 0.463947 -0.218075   
     length 3.35137  
     axis 0 0 0   XYZ 
    dof ry rz
    limits (-10.0 20.0)
           (-20.0 0.0)
  end
  begin
     id 25 
     name rhumerus
     direction -1 -4.48969e-011 -1.98511e-027  
     length 5.42351   
     axis 180 30 90   XYZ
    dof rx ry rz
    limits (-90.0 60.0)
           (-90.0 90.0)
           (-90.0 90.0)
  end
  begin
     id 26 
     name rradius
     direction -1 -4.48961e-011 -2.82624e-027   
     length 3.42066   
     axis 180 30 90   XYZ
    dof rx
    limits (-10.0 170.0)
  end
  begin
     id 27 
     name rwrist
     direction -1 -4.48966e-011 -3.80893e-027   
     length 1.71033   
     axis 1.1049e-015 -90 -90   XYZ
    dof ry
    limits (-180.0 0.0)
  end
  begin
     id 28
     name rhand
     direction -1 -4.48964e-011 -7.61786e-027   
     length 0.743608   
     axis 4.86085e-015 -90 -90   XYZ
    dof rx rz
    limits (-90.0 90.0)
           (-45.0 45.0)
  end
  begin
     id 29
     name rfingers
     direction -1 -4.48961e-011 -1.52357e-026   
     length 0.599516   
     axis 9.7217e-015 -90 -90   XYZ
    dof rx
    limits (0.0 90.0)
  end
  begin
     id 30
     name rthumb
     direction -0.707107 -6.34913e-011 0.707107   
     length 0.860789   
     axis -90 -45 -2.85299e-015   XYZ
    dof rx rz
    limits (-45.0 45.0)
           (-45.0 45.0)
  end
:hierarchy
  begin
    root lhipjoint rhipjoint lowerback
    lhipjoint lfemur
    lfemur ltibia
    ltibia lfoot
    lfoot ltoes
    rhipjoint rfemur
    rfemur rtibia
    rtibia rfoot
    rfoot rtoes
    lowerback upperback
    upperback thorax
    thorax lowerneck lclavicle rclavicle
    lowerneck upperneck
    upperneck head
    lclavicle lhumerus
    lhumerus lradius
    lradius lwrist
    lwrist lhand lthumb
    lhand lfingers
    rclavicle rhumerus
    rhumerus rradius
    rradius rwrist
    rwrist rhand rthumb
    rhand rfingers
  end

#!OML:ASF E:\mmandel\Project 1\Capture day 1\Session 2\Subject.ASF
:FULLY-SPECIFIED
:DEGREES
1114
root 4.08653 14.9268 0.77972 395.869 82.8595 377.699
lowerback 17.114 -0.416567 -8.07173
upperback 1.80179 -2.01136 -0.920149
thorax -7.40936 -0.688011 4.04147
lowerneck -16.5853 -6.28389 -1.81606
upperneck 6.10478 -7.87469 -0.778687
head 4.51987 -3.95454 -0.626634
rclavicle -4.25399e-014 -5.80451e-014
rhumerus -1.92621 3.4081 -85.6711
rradius 66.6346
rwrist -20.6208
rhand -11.7008 27.0035
rfingers 7.12502
rthumb 14.3454 -2.48083
lclavicle -4.25399e-014 -5.80451e-014
lhumerus -8.56886 -3.69759 66.1608
lradius 59.5427
lwrist 34.9949
lhand -24.0738 -32.3065
lfingers 7.12502
lthumb 2.40612 -2.34032
rfemur -62.5092 -0.467324 10.3465
rtibia 60.8279
rfoot -18.7305 -3.57589
rtoes -12.9368
lfemur -36.9304 26.0082 -19.1929
ltibia 58.2371
lfoot -31.2417 7.36333
ltoes -6.37194
1115
root 4.09989 14.9267 0.808038 396.584 82.8317 378.395
lowerback 17.2114 -0.495235 -8.02572
upperback 1.7736 -2.11655 -0.905863
thorax -7.48165 -0.736026 4.05785
lowerneck -16.2826 -6.36184 -1.64225
upperneck 5.70514 -7.99264 -1.05182
head 4.3296 -4.02527 -0.727473
rclavicle 3.18055e-015 -7.95139e-015
rhumerus -1.74725 3.60704 -85.7336
rradius 66.5038
rwrist -20.5361
rhand -11.7923 26.8471
rfingers 7.12502
rthumb 14.2571 -2.64353
lclavicle 3.18055e-015 -7.95139e-015
lhumerus -8.52514 -3.722 66.0783
lradius 59.0671
lwrist 34.5688
lhand -23.8259 -32.1735
lfingers 7.12502
lthumb 2.64554 -2.21011
rfemur -62.547 -0.47343 10.3866
rtibia 60.9462
rfoot -18.8125 -3.62165
rtoes -13.254
lfemur -36.7618 25.9298 -19.1439
ltibia 58.0126
lfoot -31.2247 7.48383
ltoes -6.58527
1116
root 4.11395 14.9328 0.830419 397.035 82.8252 378.781
lowerback 17.3223 -0.555754 -7.88393
upperback 1.71133 -2.18197 -0.853583
thorax -7.60592 -0.765066 4.05381
lowerneck -16.3112 -6.40533 -1.87847
upperneck 5.82829 -8.02341 -0.839919
head 4.39071 -4.03299 -0.633202
rclavicle 1.90833e-014 2.38542e-015
rhumerus -1.72226 3.78246 -85.6832
rradius 66.4502
rwrist -20.419
rhand -11.8534 26.7288
rfingers 7.12502
rthumb 14.1983 -2.76592
lclavicle 1.90833e-014 2.38542e-015
lhumerus -8.52131 -3.79666 66.0822
lradius 58.5891
lwrist 34.0612
lhand -23.4331 -31.9537
lfingers 7.12502
lthumb 3.02486 -1.99543
rfemur -62.5907 -0.507489 10.4617
rtibia 61.0312
rfoot -18.9624 -3.62273
rtoes -13.461
lfemur -36.636 25.91 -19.1001
ltibia 57.7589
lfoot -31.2089 7.48791
ltoes -6.62694
1117
root 4.13195 14.9429 0.846891 398.636 82.6737 380.269
lowerback 17.3494 -0.541412 -8.00586
upperback 1.65541 -2.1873 -0.76161
thorax -7.67297 -0.758977 4.22557
lowerneck -16.6088 -6.41601 -2.38423
upperneck 6.34298 -7.9687 -0.425725
head 4.63547 -3.9924 -0.446217
rclavicle -1.51076e-014 -3.18055e-014
rhumerus -1.58973 3.89527 -85.4292
rradius 66.3118
rwrist -20.2894
rhand -11.7948 26.8407
rfingers 7.12502
rthumb 14.2548 -2.65012
lclavicle -1.51076e-014 -3.18055e-014
lhumerus -8.56402 -3.8583 66.3044
lradius 58.1903
lwrist 33.4415
lhand -23.1351 -31.7525
lfingers 7.12502
lthumb 3.31265 -1.79851
rfemur -62.6664 -0.611095 10.3171
rtibia 61.0826
rfoot -19.0529 -3.46754
rtoes -13.1488
lfemur -36.5134 25.7558 -19.3217
ltibia 57.4881
lfoot -31.0943 7.76695
ltoes -6.69373
1118
root 4.14916 14.9459 0.869482 400.442 82.4833 382.038
lowerback 17.3818 -0.520884 -8.16325
upperback 1.65233 -2.19288 -0.761818
thorax -7.68753 -0.755428 4.31661
lowerneck -16.7006 -6.44268 -2.52202
upperneck 6.39129 -7.99318 -0.23547
head 4.67859 -3.99512 -0.373088
rclavicle 6.36111e-015 -1.39149e-014
rhumerus -1.3761 3.84172 -85.3586
rradius 66.0985
rwrist -20.1627
rhand -11.5708 27.017
rfingers 7.12502
rthumb 14.4706 -2.45843
lclavicle 6.36111e-015 -1.39149e-014
lhumerus -8.37721 -3.94191 66.4054
lradius 57.6138
lwrist 32.8181
lhand -22.5983 -31.441
lfingers 7.12502
lthumb 3.83106 -1.49572
rfemur -62.7028 -0.631178 10.0906
rtibia 61.1328
rfoot -19.1319 -3.39746
rtoes -12.7505
lfemur -36.3155 25.5851 -19.5326
ltibia 57.2571
lfoot -31.0534 7.95203
ltoes -6.72022
1119
root 4.16124 14.9436 0.897671 399.489 82.5164 381.04
lowerback 17.5353 -0.525297 -7.98819
upperback 1.61498 -2.17432 -0.635177
thorax -7.81705 -0.7444 4.35694
lowerneck -16.7169 -6.4335 -2.48928
upperneck 6.28816 -7.97273 -0.352499
head 4.64238 -3.99135 -0.410383
rclavicle -8.74653e-015 1.55052e-014
rhumerus -1.26647 3.90595 -85.3064
rradius 65.9446
rwrist -20.074
rhand -11.3307 27.0341
rfingers 7.12502
rthumb 14.7019 -2.42459
lclavicle -8.74653e-015 1.55052e-014
lhumerus -8.23604 -3.97544 66.4818
lradius 57.0463
lwrist 32.2268
lhand -21.9205 -31.0983
lfingers 7.12502
lthumb 4.48549 -1.16576
rfemur -62.7281 -0.425954 10.2987
rtibia 61.1813
rfoot -19.2396 -3.53661
rtoes -12.6734
lfemur -36.2011 25.6379 -19.2354
ltibia 57.1129
lfoot -31.0461 7.73643
ltoes -6.30468
1120
root 4.1751 14.9446 0.925387 398.151 82.5176 379.589
lowerback 17.7018 -0.516698 -7.92125
upperback 1.46488 -2.16247 -0.408197
thorax -8.06882 -0.724721 4.57224
lowerneck -17.0688 -6.38877 -2.78385
upperneck 6.77186 -7.85931 -0.173567
head 4.86759 -3.93135 -0.32219
rclavicle 3.97569e-015 -6.75868e-015
rhumerus -1.31081 4.15999 -85.1468
rradius 65.8216
rwrist -19.976
rhand -11.2624 26.9388
rfingers 7.12502
rthumb 14.7677 -2.51508
lclavicle 3.97569e-015 -6.75868e-015
lhumerus -8.48268 -3.97043 66.6796
lradius 56.7365
lwrist 31.6964
lhand -21.4688 -30.7488
lfingers 7.12502
lthumb 4.92167 -0.825962
rfemur -62.8225 -0.23961 10.5803
rtibia 61.236
rfoot -19.2989 -3.59858
rtoes -12.566
lfemur -36.1725 25.8188 -18.952
ltibia 56.9774
lfoot -30.937 7.56615
ltoes -6.0021
1121
root 4.19647 14.9503 0.952944 398.9 82.388 380.269
lowerback 17.7541 -0.510053 -8.11723
upperback 1.34406 -2.19831 -0.289218
thorax -8.21385 -0.724607 4.82604
lowerneck -17.2823 -6.37859 -3.08699
upperneck 7.24052 -7.80235 0.0635586
head 5.07001 -3.89604 -0.214249
rclavicle 2.54444e-014 -7.95139e-016
rhumerus -1.325 4.36549 -85.0569
rradius 65.6497
rwrist -19.8536
rhand -11.2553 26.87
rfingers 7.12502
rthumb 14.7745 -2.58341
lclavicle 2.54444e-014 -7.95139e-016
lhumerus -8.79244 -3.84778 66.8593
lradius 56.5499
lwrist 31.014
lhand -20.9471 -30.0552
lfingers 7.12502
lthumb 5.4254 -0.144658
rfemur -62.874 -0.220387 10.5609
rtibia 61.3091
rfoot -19.3942 -3.55465
rtoes -12.3663
lfemur -36.0306 25.9039 -19.0131
ltibia 56.7921
lfoot -30.8821 7.58472
ltoes -6.21082
1122
root 4.21783 14.9564 0.979822 399.793 82.3088 381.119
lowerback 17.6516 -0.54634 -8.16224
upperback 1.37499 -2.24186 -0.276668
thorax -8.11458 -0.749206 4.87098
lowerneck -17.2542 -6.4732 -3.09694
upperneck 7.14127 -7.92674 0.0661789
head 5.03618 -3.95677 -0.220771
rclavicle 9.93923e-015 1.59028e-014
rhumerus -1.01323 4.40268 -85.1147
rradius 65.3741
rwrist -19.72
rhand -11.2471 26.9897
rfingers 7.12502
rthumb 14.7824 -2.46313
lclavicle 9.93923e-015 1.59028e-014
lhumerus -8.90022 -3.58691 66.8888
lradius 56.3766
lwrist 30.0907
lhand -20.0908 -29.3764
lfingers 7.12502
lthumb 6.25219 0.511363
rfemur -62.8733 -0.204707 10.5171
rtibia 61.3978
rfoot -19.5534 -3.56895
rtoes -12.3036
lfemur -35.8179 25.8481 -19.0394
ltibia 56.5765
lfoot -30.921 7.55227
ltoes -5.90376
1123
root 4.23342 14.9578 1.007 400.273 82.2929 381.512
lowerback 17.5312 -0.578389 -8.0396
upperback 1.44247 -2.24582 -0.305392
thorax -7.97891 -0.763767 4.76509
lowerneck -17.2589 -6.61436 -2.98134
upperneck 6.91693 -8.14014 0.0787705
head 4.96435 -4.05635 -0.249926
rclavicle -3.77691e-014 -2.78299e-014
rhumerus -0.718149 4.31402 -85.1879
rradius 65.1994
rwrist -19.6098
rhand -11.3027 27.0819
rfingers 7.12502
rthumb 14.7289 -2.37488
lclavicle -3.77691e-014 -2.78299e-014
lhumerus -8.81082 -3.66969 66.8263
lradius 56.0689
lwrist 29.5705
lhand -19.1214 -29.2727
lfingers 7.12502
lthumb 7.18792 0.585262
rfemur -62.9536 -0.137618 10.5405
rtibia 61.5065
rfoot -19.677 -3.6383
rtoes -11.8237
lfemur -35.6903 25.6642 -18.9727
ltibia 56.3566
lfoot -30.8926 7.6629
ltoes -5.51949
1124
root 4.24781 14.9578 1.03511 401.31 82.3188 382.513
lowerback 17.6416 -0.582276 -8.02144
upperback 1.43366 -2.25535 -0.275554
thorax -8.04777 -0.76471 4.79376
lowerneck -17.2528 -6.70595 -2.91574
upperneck 6.82171 -8.27557 0.0712484
head 4.93179 -4.12123 -0.272646
rclavicle -9.93923e-016 9.14409e-015
rhumerus -0.752838 4.29542 -85.1041
rradius 65.2352
rwrist -19.6006
rhand -11.3439 26.9856
rfingers 7.12502
rthumb 14.6892 -2.47405
lclavicle -9.93923e-016 9.14409e-015
lhumerus -8.7309 -3.95938 66.8953
lradius 55.6895
lwrist 29.4916
lhand -18.2866 -29.1688
lfingers 7.12502
lthumb 7.99375 0.660007
rfemur -62.9867 -0.103594 10.5054
rtibia 61.6197
rfoot -19.7927 -3.73094
rtoes -11.3311
lfemur -35.5835 25.4569 -18.9527
ltibia 56.1457
lfoot -30.7201 8.04339
ltoes -6.20007
1125
root 4.26345 14.9628 1.06235 402.337 82.3116 383.465
lowerback 17.6549 -0.602274 -8.04394
upperback 1.44513 -2.28378 -0.247683
thorax -8.0364 -0.777736 4.84371
lowerneck -17.4685 -6.74808 -2.91077
upperneck 6.91817 -8.32864 0.101877
head 4.9976 -4.14379 -0.278328
rclavicle -1.43125e-014 3.02153e-014
rhumerus -0.644904 4.27737 -85.1033
rradius 65.1897
rwrist -19.5632
rhand -11.4435 26.8397
rfingers 7.12502
rthumb 14.5932 -2.6269
lclavicle -1.43125e-014 3.02153e-014
lhumerus -8.67355 -4.01967 66.971
lradius 55.448
lwrist 29.3327
lhand -17.543 -28.6828
lfingers 7.12502
lthumb 8.71133 1.11741
rfemur -63.0184 -0.0712364 10.4553
rtibia 61.7046
rfoot -19.9187 -3.7834
rtoes -11.1921
lfemur -35.5333 25.4219 -18.9904
ltibia 55.9407
lfoot -30.5464 8.17239
ltoes -6.72608
1126
root 4.28135 14.968 1.08849 402.477 82.2322 383.44
lowerback 17.3655 -0.634592 -7.96974
upperback 1.52791 -2.28137 -0.268735
thorax -7.78953 -0.793457 4.76544
lowerneck -17.9288 -6.78419 -2.97201
upperneck 7.16198 -8.36149 0.228067
head 5.15507 -4.14982 -0.254032
rclavicle 1.21259e-014 0
rhumerus -0.298455 4.24122 -85.2245
rradius 65.0146
rwrist -19.4735
rhand -11.4746 26.7455
rfingers 7.12502
rthumb 14.5632 -2.72329
lclavicle 1.21259e-014 0
lhumerus -8.51685 -4.01764 66.927
lradius 55.1964
lwrist 29.1853
lhand -16.7482 -28.363
lfingers 7.12502
lthumb 9.47834 1.40388
rfemur -63.1526 0.0234745 10.4895
rtibia 61.7602
rfoot -20.0516 -3.78203
rtoes -11.0007
lfemur -35.5151 25.4038 -18.977
ltibia 55.7485
lfoot -30.5073 8.13345
ltoes -6.65079
1127
root 4.30015 14.9698 1.11417 402.439 82.1952 383.299
lowerback 17.1018 -0.680581 -7.8348
upperback 1.62446 -2.28627 -0.277383
thorax -7.54303 -0.81429 4.66868
lowerneck -18.0895 -6.85078 -3.19411
upperneck 7.2801 -8.42567 0.489913
head 5.23949 -4.1674 -0.15362
rclavicle 1.53064e-014 -9.14409e-015
rhumerus -0.0364279 4.23672 -85.3302
rradius 64.8301
rwrist -19.3515
rhand -11.4558 26.8195
rfingers 7.12502
rthumb 14.5814 -2.64799
lclavicle 1.53064e-014 -9.14409e-015
lhumerus -8.37019 -4.05344 66.9128
lradius 54.7951
lwrist 29.1557
lhand -15.8814 -28.5153
lfingers 7.12502
lthumb 10.3146 1.21174
rfemur -63.2162 0.131149 10.5617
rtibia 61.8105
rfoot -20.2211 -3.87128
rtoes -11.5601
lfemur -35.4202 25.3804 -18.8818
ltibia 55.5687
lfoot -30.4791 8.13946
ltoes -6.72541
1128
root 4.31566 14.9749 1.13826 402.42 82.2697 383.19
lowerback 17.0043 -0.728492 -7.61619
upperback 1.65058 -2.29527 -0.231046
thorax -7.46608 -0.829546 4.59291
lowerneck -18.0014 -6.95072 -3.4146
upperneck 7.31629 -8.53366 0.662771
head 5.25602 -4.21464 -0.0754127
rclavicle -9.74045e-015 -1.19271e-015
rhumerus 0.131875 4.24058 -85.3516
rradius 64.6373
rwrist -19.2531
rhand -11.5435 26.8723
rfingers 7.12502
rthumb 14.4968 -2.60125
lclavicle -9.74045e-015 -1.19271e-015
lhumerus -8.38829 -4.21169 66.9914
lradius 54.4883
lwrist 29.1604
lhand -15.2301 -28.8606
lfingers 7.12502
lthumb 10.9428 0.834214
rfemur -63.2304 0.183813 10.6984
rtibia 61.8438
rfoot -20.3682 -3.98914
rtoes -12.0767
lfemur -35.3755 25.4733 -18.7468
ltibia 55.3782
lfoot -30.3631 8.04533
ltoes -6.96743
